{
  "accessors": [
    {
      "bufferView": 2,
      "componentType": 5126,
      "count": 3534,
      "max": [
        238.63800048828125,
        -197.2100067138672,
        1.8964899778366089
      ],
      "min": [
        235.53700256347656,
        -199.55099487304688,
        -1.4901199563155387e-07
      ],
      "type": "VEC3"
    },
    {
      "bufferView": 2,
      "byteOffset": 42408,
      "componentType": 5126,
      "count": 3534,
      "max": [
        0.9632612466812134,
        0.9920029640197754,
        1.0
      ],
      "min": [
        -0.9632612466812134,
        -0.9920029640197754,
        -1.0
      ],
      "type": "VEC3"
    },
    {
      "bufferView": 1,
      "componentType": 5126,
      "count": 3534,
      "max": [
        2.757110118865967,
        -0.6726189851760864
      ],
      "min": [
        1.3784300088882446,
        -1.1772500276565552
      ],
      "type": "VEC2"
    },
    {
      "bufferView": 0,
      "componentType": 5125,
      "count": 10920,
      "type": "SCALAR"
    },
    {
      "bufferView": 2,
      "byteOffset": 84816,
      "componentType": 5126,
      "count": 1582,
      "max": [
        238.52699279785156,
        -198.04299926757813,
        0.7908220291137695
      ],
      "min": [
        235.64300537109375,
        -199.36700439453125,
        0.05030909925699234
      ],
      "type": "VEC3"
    },
    {
      "bufferView": 2,
      "byteOffset": 103800,
      "componentType": 5126,
      "count": 1582,
      "max": [
        0.996269941329956,
        0.996269941329956,
        1.0
      ],
      "min": [
        -0.996269941329956,
        -0.996269941329956,
        -1.0
      ],
      "type": "VEC3"
    },
    {
      "bufferView": 1,
      "byteOffset": 28272,
      "componentType": 5126,
      "count": 1582,
      "max": [
        56.02669906616211,
        -16.962600708007813
      ],
      "min": [
        -0.026686999946832657,
        -61.03580093383789
      ],
      "type": "VEC2"
    },
    {
      "bufferView": 0,
      "byteOffset": 43680,
      "componentType": 5125,
      "count": 6720,
      "type": "SCALAR"
    }
  ],
  "asset": {
    "extras": {
      "author": "NotThatGuy™ (https://sketchfab.com/Ngboy111111111)",
      "license": "CC-BY-4.0 (http://creativecommons.org/licenses/by/4.0/)",
      "source": "https://sketchfab.com/3d-models/dandys-world-eggs-306d0b1a7e7645a588dcbf8c82eca724",
      "title": "Dandys World Eggs"
    },
    "generator": "Sketchfab-16.74.0",
    "version": "2.0"
  },
  "bufferViews": [
    {
      "buffer": 0,
      "byteLength": 70560,
      "name": "floatBufferViews",
      "target": 34963
    },
    {
      "buffer": 0,
      "byteLength": 40928,
      "byteOffset": 70560,
      "byteStride": 8,
      "name": "floatBufferViews",
      "target": 34962
    },
    {
      "buffer": 0,
      "byteLength": 122784,
      "byteOffset": 111488,
      "byteStride": 12,
      "name": "floatBufferViews",
      "target": 34962
    }
  ],
  "buffers": [
    {
      "byteLength": 234272,
      "uri": "scene.bin"
    }
  ],
  "images": [
    {
      "uri": "textures/Carton1Mtl_baseColor.png"
    }
  ],
  "materials": [
    {
      "doubleSided": true,
      "name": "Carton1Mtl",
      "pbrMetallicRoughness": {
        "baseColorTexture": {
          "index": 0
        },
        "metallicFactor": 0.0,
        "roughnessFactor": 0.6
      }
    },
    {
      "doubleSided": true,
      "name": "Egg1Mtl",
      "pbrMetallicRoughness": {
        "baseColorFactor": [
          0.7912979403326302,
          0.3915724777497231,
          0.20155625379439707,
          1.0
        ],
        "metallicFactor": 0.0,
        "roughnessFactor": 0.6
      }
    }
  ],
  "meshes": [
    {
      "name": "Object_0",
      "primitives": [
        {
          "attributes": {
            "NORMAL": 1,
            "POSITION": 0,
            "TEXCOORD_0": 2
          },
          "indices": 3,
          "material": 0,
          "mode": 4
        }
      ]
    },
    {
      "name": "Object_1",
      "primitives": [
        {
          "attributes": {
            "NORMAL": 5,
            "POSITION": 4,
            "TEXCOORD_0": 6
          },
          "indices": 7,
          "material": 1,
          "mode": 4
        }
      ]
    }
  ],
  "nodes": [
    {
      "children": [
        1
      ],
      "matrix": [
        1.0,
        0.0,
        0.0,
        0.0,
        0.0,
        2.220446049250313e-16,
        -1.0,
        0.0,
        0.0,
        1.0,
        2.220446049250313e-16,
        0.0,
        0.0,
        0.0,
        0.0,
        1.0
      ],
      "name": "Sketchfab_model"
    },
    {
      "children": [
        2,
        3
      ],
      "name": "Egg carten.obj.cleaner.materialmerger.gles"
    },
    {
      "mesh": 0,
      "name": "Object_2"
    },
    {
      "mesh": 1,
      "name": "Object_3"
    }
  ],
  "samplers": [
    {
      "magFilter": 9729,
      "minFilter": 9987,
      "wrapS": 10497,
      "wrapT": 10497
    }
  ],
  "scene": 0,
  "scenes": [
    {
      "name": "Sketchfab_Scene",
      "nodes": [
        0
      ]
    }
  ],
  "textures": [
    {
      "sampler": 0,
      "source": 0
    }
  ]
}
