{
  "accessors": [
    {
      "bufferView": 2,
      "componentType": 5126,
      "count": 50160,
      "max": [
        1.220937728881836,
        0.44167560338974,
        1.219746708869934
      ],
      "min": [
        -1.2143118381500244,
        -1.2206116914749146,
        -1.2220549583435059
      ],
      "type": "VEC3"
    },
    {
      "bufferView": 2,
      "byteOffset": 601920,
      "componentType": 5126,
      "count": 50160,
      "max": [
        0.9999802112579346,
        0.9999979138374329,
        0.9999926686286926
      ],
      "min": [
        -0.9999925494194031,
        -0.9999982714653015,
        -0.9999984502792358
      ],
      "type": "VEC3"
    },
    {
      "bufferView": 1,
      "componentType": 5126,
      "count": 50160,
      "max": [
        3.000000476837158,
        0.4721442759037018
      ],
      "min": [
        -2.000000238418579,
        0.22117319703102112
      ],
      "type": "VEC2"
    },
    {
      "bufferView": 0,
      "componentType": 5125,
      "count": 202752,
      "type": "SCALAR"
    },
    {
      "bufferView": 2,
      "byteOffset": 1203840,
      "componentType": 5126,
      "count": 52640,
      "max": [
        1.180106520652771,
        0.3042338490486145,
        1.1789321899414063
      ],
      "min": [
        -1.1745781898498535,
        -1.2206116914749146,
        -1.1813570261001587
      ],
      "type": "VEC3"
    },
    {
      "bufferView": 2,
      "byteOffset": 1835520,
      "componentType": 5126,
      "count": 52640,
      "max": [
        0.9991450309753418,
        0.9999979138374329,
        0.9990026950836182
      ],
      "min": [
        -0.9988073110580444,
        -0.9999982714653015,
        -0.9987155199050903
      ],
      "type": "VEC3"
    },
    {
      "bufferView": 1,
      "byteOffset": 401280,
      "componentType": 5126,
      "count": 52640,
      "max": [
        3.000000476837158,
        0.2249397188425064
      ],
      "min": [
        -2.000000238418579,
        0.22117319703102112
      ],
      "type": "VEC2"
    },
    {
      "bufferView": 0,
      "byteOffset": 811008,
      "componentType": 5125,
      "count": 172032,
      "type": "SCALAR"
    }
  ],
  "asset": {
    "extras": {
      "author": "mjkVeggie (https://sketchfab.com/Skeets1418)",
      "license": "CC-BY-4.0 (http://creativecommons.org/licenses/by/4.0/)",
      "source": "https://sketchfab.com/3d-models/flour-bag-caa1e0d87b614e2ba5ffd8236da5c40e",
      "title": "Flour Bag"
    },
    "generator": "Sketchfab-16.59.0",
    "version": "2.0"
  },
  "bufferViews": [
    {
      "buffer": 0,
      "byteLength": 1499136,
      "name": "floatBufferViews",
      "target": 34963
    },
    {
      "buffer": 0,
      "byteLength": 822400,
      "byteOffset": 1499136,
      "byteStride": 8,
      "name": "floatBufferViews",
      "target": 34962
    },
    {
      "buffer": 0,
      "byteLength": 2467200,
      "byteOffset": 2321536,
      "byteStride": 12,
      "name": "floatBufferViews",
      "target": 34962
    }
  ],
  "buffers": [
    {
      "byteLength": 4788736,
      "uri": "scene.bin"
    }
  ],
  "materials": [
    {
      "doubleSided": true,
      "name": "Material.009"
    },
    {
      "doubleSided": true,
      "name": "Material.010"
    }
  ],
  "meshes": [
    {
      "name": "Object_0",
      "primitives": [
        {
          "attributes": {
            "NORMAL": 1,
            "POSITION": 0,
            "TEXCOORD_0": 2
          },
          "indices": 3,
          "material": 0,
          "mode": 4
        }
      ]
    },
    {
      "name": "Object_1",
      "primitives": [
        {
          "attributes": {
            "NORMAL": 5,
            "POSITION": 4,
            "TEXCOORD_0": 6
          },
          "indices": 7,
          "material": 1,
          "mode": 4
        }
      ]
    }
  ],
  "nodes": [
    {
      "children": [
        1
      ],
      "matrix": [
        1.0,
        0.0,
        0.0,
        0.0,
        0.0,
        2.220446049250313e-16,
        -1.0,
        0.0,
        0.0,
        1.0,
        2.220446049250313e-16,
        0.0,
        0.0,
        0.0,
        0.0,
        1.0
      ],
      "name": "Sketchfab_model"
    },
    {
      "children": [
        2
      ],
      "name": "root"
    },
    {
      "children": [
        3
      ],
      "matrix": [
        1.0,
        0.0,
        0.0,
        0.0,
        0.0,
        2.220446049250313e-16,
        1.0,
        0.0,
        0.0,
        -1.0,
        2.220446049250313e-16,
        0.0,
        0.0,
        0.0,
        0.0,
        1.0
      ],
      "name": "GLTF_SceneRootNode"
    },
    {
      "children": [
        4
      ],
      "matrix": [
        9.260659217834473,
        0.0,
        0.0,
        0.0,
        0.0,
        6.636477470397949,
        0.0,
        0.0,
        0.0,
        0.0,
        8.981476783752441,
        0.0,
        0.04973521828651428,
        2.99642014503479,
        -0.05629158020019531,
        1.0
      ],
      "name": "Lattice_7"
    },
    {
      "children": [
        5,
        6
      ],
      "matrix": [
        0.0,
        0.0,
        0.4143388867378235,
        0.0,
        -0.0,
        0.5607455372810364,
        0.0,
        0.0,
        -0.4018477499485016,
        0.0,
        0.0,
        0.0,
        -0.0031686730217188597,
        0.19632351398468018,
        -0.008352065458893776,
        1.0
      ],
      "name": "Flour Bag_6"
    },
    {
      "mesh": 0,
      "name": "Object_5"
    },
    {
      "mesh": 1,
      "name": "Object_6"
    }
  ],
  "scene": 0,
  "scenes": [
    {
      "name": "Sketchfab_Scene",
      "nodes": [
        0
      ]
    }
  ]
}
