{
  "accessors": [
    {
      "bufferView": 2,
      "componentType": 5126,
      "count": 19001,
      "max": [
        0.26756900548934937,
        0.2680470049381256,
        3.210916042327881
      ],
      "min": [
        -0.26676300168037415,
        -0.2675749957561493,
        2.9682629108428955
      ],
      "type": "VEC3"
    },
    {
      "bufferView": 2,
      "byteOffset": 228012,
      "componentType": 5126,
      "count": 19001,
      "max": [
        0.9999948740005493,
        0.9999916553497314,
        1.0
      ],
      "min": [
        -0.999999463558197,
        -0.9999948740005493,
        -1.0
      ],
      "type": "VEC3"
    },
    {
      "bufferView": 1,
      "componentType": 5126,
      "count": 19001,
      "max": [
        1.0,
        1.0
      ],
      "min": [
        0.0,
        -0.0
      ],
      "type": "VEC2"
    },
    {
      "bufferView": 0,
      "componentType": 5125,
      "count": 100800,
      "type": "SCALAR"
    },
    {
      "bufferView": 2,
      "byteOffset": 456024,
      "componentType": 5126,
      "count": 23485,
      "max": [
        0.9847049713134766,
        0.9888650178909302,
        2.9682629108428955
      ],
      "min": [
        -0.9847049713134766,
        -0.9888020157814026,
        -0.7400299906730652
      ],
      "type": "VEC3"
    },
    {
      "bufferView": 2,
      "byteOffset": 737844,
      "componentType": 5126,
      "count": 23485,
      "max": [
        1.0,
        1.0,
        0.9999868869781494
      ],
      "min": [
        -1.0,
        -1.0,
        -1.0
      ],
      "type": "VEC3"
    },
    {
      "bufferView": 1,
      "byteOffset": 152008,
      "componentType": 5126,
      "count": 23485,
      "max": [
        1.0,
        1.0
      ],
      "min": [
        0.0,
        0.0
      ],
      "type": "VEC2"
    },
    {
      "bufferView": 0,
      "byteOffset": 403200,
      "componentType": 5125,
      "count": 117792,
      "type": "SCALAR"
    }
  ],
  "asset": {
    "extras": {
      "author": "karymeh3d (https://sketchfab.com/karymeh3d)",
      "license": "CC-BY-4.0 (http://creativecommons.org/licenses/by/4.0/)",
      "source": "https://sketchfab.com/3d-models/water-bottle-8165200d339f4f2389a000c42329ae60",
      "title": "Water Bottle"
    },
    "generator": "Sketchfab-12.67.0",
    "version": "2.0"
  },
  "bufferViews": [
    {
      "buffer": 0,
      "byteLength": 874368,
      "name": "floatBufferViews",
      "target": 34963
    },
    {
      "buffer": 0,
      "byteLength": 339888,
      "byteOffset": 874368,
      "byteStride": 8,
      "name": "floatBufferViews",
      "target": 34962
    },
    {
      "buffer": 0,
      "byteLength": 1019664,
      "byteOffset": 1214256,
      "byteStride": 12,
      "name": "floatBufferViews",
      "target": 34962
    }
  ],
  "buffers": [
    {
      "byteLength": 2233920,
      "uri": "scene.bin"
    }
  ],
  "extensionsUsed": [
    "KHR_materials_clearcoat"
  ],
  "materials": [
    {
      "doubleSided": true,
      "name": "blinn1SG",
      "pbrMetallicRoughness": {
        "baseColorFactor": [
          0.034702743902439076,
          0.0,
          0.32967606707317076,
          1.0
        ],
        "metallicFactor": 0.8126905487804879,
        "roughnessFactor": 0.0
      }
    },
    {
      "alphaMode": "BLEND",
      "doubleSided": true,
      "extensions": {
        "KHR_materials_clearcoat": {
          "clearcoatFactor": 1.0,
          "clearcoatRoughnessFactor": 0.04
        }
      },
      "name": "initialShadingGroup",
      "pbrMetallicRoughness": {
        "baseColorFactor": [
          0.3636623475609756,
          0.3636623475609756,
          0.3636623475609756,
          0.16634908536585366
        ],
        "metallicFactor": 0.7456173780487805,
        "roughnessFactor": 0.31878810975609756
      }
    }
  ],
  "meshes": [
    {
      "name": "Object_0",
      "primitives": [
        {
          "attributes": {
            "NORMAL": 1,
            "POSITION": 0,
            "TEXCOORD_0": 2
          },
          "indices": 3,
          "material": 0,
          "mode": 4
        }
      ]
    },
    {
      "name": "Object_1",
      "primitives": [
        {
          "attributes": {
            "NORMAL": 5,
            "POSITION": 4,
            "TEXCOORD_0": 6
          },
          "indices": 7,
          "material": 1,
          "mode": 4
        }
      ]
    }
  ],
  "nodes": [
    {
      "children": [
        1
      ],
      "matrix": [
        1.0,
        0.0,
        0.0,
        0.0,
        0.0,
        2.220446049250313e-16,
        -1.0,
        0.0,
        0.0,
        1.0,
        2.220446049250313e-16,
        0.0,
        0.0,
        0.0,
        0.0,
        1.0
      ],
      "name": "Sketchfab_model"
    },
    {
      "children": [
        2,
        3
      ],
      "name": "obj-WaterBottle.obj.cleaner.materialmerger.gles"
    },
    {
      "mesh": 0,
      "name": "Object_2"
    },
    {
      "mesh": 1,
      "name": "Object_3"
    }
  ],
  "scene": 0,
  "scenes": [
    {
      "name": "Sketchfab_Scene",
      "nodes": [
        0
      ]
    }
  ]
}
