{
  "accessors": [
    {
      "bufferView": 2,
      "componentType": 5126,
      "count": 12823,
      "max": [
        -0.013596508651971817,
        -0.019637171179056168,
        0.09221712499856949
      ],
      "min": [
        -0.4995185136795044,
        -0.26553666591644287,
        -0.07434668391942978
      ],
      "type": "VEC3"
    },
    {
      "bufferView": 2,
      "byteOffset": 153876,
      "componentType": 5126,
      "count": 12823,
      "max": [
        0.9998399615287781,
        1.0,
        0.9993935823440552
      ],
      "min": [
        -1.0,
        -0.9993634223937988,
        -0.9983125925064087
      ],
      "type": "VEC3"
    },
    {
      "bufferView": 1,
      "componentType": 5126,
      "count": 12823,
      "max": [
        0.999456524848938,
        0.9994617700576782
      ],
      "min": [
        0.0005434782360680401,
        0.0005382299423217773
      ],
      "type": "VEC2"
    },
    {
      "bufferView": 1,
      "byteOffset": 102584,
      "componentType": 5126,
      "count": 12823,
      "max": [
        0.999456524848938,
        0.9994617700576782
      ],
      "min": [
        0.0005434782360680401,
        0.0005382299423217773
      ],
      "type": "VEC2"
    },
    {
      "bufferView": 1,
      "byteOffset": 205168,
      "componentType": 5126,
      "count": 12823,
      "max": [
        0.999456524848938,
        0.9994617700576782
      ],
      "min": [
        0.0005434782360680401,
        0.0005382299423217773
      ],
      "type": "VEC2"
    },
    {
      "bufferView": 0,
      "componentType": 5125,
      "count": 39897,
      "type": "SCALAR"
    },
    {
      "bufferView": 2,
      "byteOffset": 307752,
      "componentType": 5126,
      "count": 8,
      "max": [
        -0.24308520555496216,
        -0.24750810861587524,
        0.04721340164542198
      ],
      "min": [
        -0.25910428166389465,
        -0.24969497323036194,
        0.014337765984237194
      ],
      "type": "VEC3"
    },
    {
      "bufferView": 2,
      "byteOffset": 307848,
      "componentType": 5126,
      "count": 8,
      "max": [
        0.08119796961545944,
        -0.9546523690223694,
        0.02069937065243721
      ],
      "min": [
        -0.29771631956100464,
        -0.9971155524253845,
        -0.06760124117136002
      ],
      "type": "VEC3"
    },
    {
      "bufferView": 1,
      "byteOffset": 307752,
      "componentType": 5126,
      "count": 8,
      "max": [
        0.0,
        1.0
      ],
      "min": [
        0.0,
        1.0
      ],
      "type": "VEC2"
    },
    {
      "bufferView": 0,
      "byteOffset": 159588,
      "componentType": 5125,
      "count": 21,
      "type": "SCALAR"
    },
    {
      "bufferView": 2,
      "byteOffset": 307944,
      "componentType": 5126,
      "count": 9440,
      "max": [
        0.48553794622421265,
        -0.021583743393421173,
        0.08358949422836304
      ],
      "min": [
        -0.018739774823188782,
        -0.26688912510871887,
        -0.08391936868429184
      ],
      "type": "VEC3"
    },
    {
      "bufferView": 2,
      "byteOffset": 421224,
      "componentType": 5126,
      "count": 9440,
      "max": [
        0.9997977614402771,
        0.9999100565910339,
        0.9999552965164185
      ],
      "min": [
        -0.9994985461235046,
        -0.999939501285553,
        -0.9998205900192261
      ],
      "type": "VEC3"
    },
    {
      "bufferView": 1,
      "byteOffset": 307816,
      "componentType": 5126,
      "count": 9440,
      "max": [
        0.9994697570800781,
        0.999465823173523
      ],
      "min": [
        0.000530222721863538,
        0.0005341768264770508
      ],
      "type": "VEC2"
    },
    {
      "bufferView": 1,
      "byteOffset": 383336,
      "componentType": 5126,
      "count": 9440,
      "max": [
        0.9994697570800781,
        0.999465823173523
      ],
      "min": [
        0.000530222721863538,
        0.0005341768264770508
      ],
      "type": "VEC2"
    },
    {
      "bufferView": 1,
      "byteOffset": 458856,
      "componentType": 5126,
      "count": 9440,
      "max": [
        0.9994697570800781,
        0.999465823173523
      ],
      "min": [
        0.000530222721863538,
        0.0005341768264770508
      ],
      "type": "VEC2"
    },
    {
      "bufferView": 0,
      "byteOffset": 159672,
      "componentType": 5125,
      "count": 34017,
      "type": "SCALAR"
    },
    {
      "bufferView": 2,
      "byteOffset": 534504,
      "componentType": 5126,
      "count": 10856,
      "max": [
        -0.007467309013009071,
        0.2577051520347595,
        0.04940539598464966
      ],
      "min": [
        -0.49975210428237915,
        -0.03978138417005539,
        -0.09319508820772171
      ],
      "type": "VEC3"
    },
    {
      "bufferView": 2,
      "byteOffset": 664776,
      "componentType": 5126,
      "count": 10856,
      "max": [
        0.9996593594551086,
        0.9999774694442749,
        1.0
      ],
      "min": [
        -1.0,
        -1.0,
        -1.0
      ],
      "type": "VEC3"
    },
    {
      "bufferView": 1,
      "byteOffset": 534376,
      "componentType": 5126,
      "count": 10856,
      "max": [
        0.9994337558746338,
        0.9994331002235413
      ],
      "min": [
        0.0005662514013238251,
        0.0005668997764587402
      ],
      "type": "VEC2"
    },
    {
      "bufferView": 1,
      "byteOffset": 621224,
      "componentType": 5126,
      "count": 10856,
      "max": [
        0.9994337558746338,
        0.9994331002235413
      ],
      "min": [
        0.0005662514013238251,
        0.0005668997764587402
      ],
      "type": "VEC2"
    },
    {
      "bufferView": 1,
      "byteOffset": 708072,
      "componentType": 5126,
      "count": 10856,
      "max": [
        0.9994337558746338,
        0.9994331002235413
      ],
      "min": [
        0.0005662514013238251,
        0.0005668997764587402
      ],
      "type": "VEC2"
    },
    {
      "bufferView": 0,
      "byteOffset": 295740,
      "componentType": 5125,
      "count": 34017,
      "type": "SCALAR"
    },
    {
      "bufferView": 2,
      "byteOffset": 795048,
      "componentType": 5126,
      "count": 13310,
      "max": [
        0.5001896619796753,
        0.2549338638782501,
        0.07550650089979172
      ],
      "min": [
        -0.024480121210217476,
        -0.04455333948135376,
        -0.09034672379493713
      ],
      "type": "VEC3"
    },
    {
      "bufferView": 2,
      "byteOffset": 954768,
      "componentType": 5126,
      "count": 13310,
      "max": [
        0.9992486834526062,
        1.0,
        1.0
      ],
      "min": [
        -1.0,
        -1.0,
        -1.0
      ],
      "type": "VEC3"
    },
    {
      "bufferView": 1,
      "byteOffset": 794920,
      "componentType": 5126,
      "count": 13310,
      "max": [
        0.9994475245475769,
        0.9994487166404724
      ],
      "min": [
        0.0005524861626327038,
        0.0005512833595275879
      ],
      "type": "VEC2"
    },
    {
      "bufferView": 1,
      "byteOffset": 901400,
      "componentType": 5126,
      "count": 13310,
      "max": [
        0.9994475245475769,
        0.9994487166404724
      ],
      "min": [
        0.0005524861626327038,
        0.0005512833595275879
      ],
      "type": "VEC2"
    },
    {
      "bufferView": 1,
      "byteOffset": 1007880,
      "componentType": 5126,
      "count": 13310,
      "max": [
        0.9994475245475769,
        0.9994487166404724
      ],
      "min": [
        0.0005524861626327038,
        0.0005512833595275879
      ],
      "type": "VEC2"
    },
    {
      "bufferView": 0,
      "byteOffset": 431808,
      "componentType": 5125,
      "count": 39918,
      "type": "SCALAR"
    }
  ],
  "asset": {
    "extras": {
      "author": "WornoxGames (https://sketchfab.com/WornoxGames)",
      "license": "CC-BY-4.0 (http://creativecommons.org/licenses/by/4.0/)",
      "source": "https://sketchfab.com/3d-models/vegetables-higen3d-by-wornox-ddf63ced0dd54598a4d7514fec92b294",
      "title": "Vegetables HiGen3D by Wornox"
    },
    "generator": "Sketchfab-17.8.0",
    "version": "2.0"
  },
  "bufferViews": [
    {
      "buffer": 0,
      "byteLength": 591480,
      "name": "floatBufferViews",
      "target": 34963
    },
    {
      "buffer": 0,
      "byteLength": 1114360,
      "byteOffset": 591480,
      "byteStride": 8,
      "name": "floatBufferViews",
      "target": 34962
    },
    {
      "buffer": 0,
      "byteLength": 1114488,
      "byteOffset": 1705840,
      "byteStride": 12,
      "name": "floatBufferViews",
      "target": 34962
    }
  ],
  "buffers": [
    {
      "byteLength": 2820328,
      "uri": "scene.bin"
    }
  ],
  "images": [
    {
      "uri": "textures/Material_0_baseColor.png"
    },
    {
      "uri": "textures/Material_0_metallicRoughness.png"
    },
    {
      "uri": "textures/Material_2_baseColor.png"
    },
    {
      "uri": "textures/Material_2_metallicRoughness.png"
    },
    {
      "uri": "textures/Material_3_baseColor.png"
    },
    {
      "uri": "textures/Material_3_metallicRoughness.png"
    },
    {
      "uri": "textures/Material_4_baseColor.png"
    },
    {
      "uri": "textures/Material_4_metallicRoughness.png"
    }
  ],
  "materials": [
    {
      "name": "Material_0",
      "pbrMetallicRoughness": {
        "baseColorTexture": {
          "index": 0
        },
        "metallicRoughnessTexture": {
          "index": 1
        }
      }
    },
    {
      "alphaMode": "BLEND",
      "name": "Material_1",
      "pbrMetallicRoughness": {
        "baseColorFactor": [
          0.117647,
          0.117647,
          0.117647,
          0.392157
        ],
        "metallicFactor": 0.0,
        "roughnessFactor": 0.1
      }
    },
    {
      "name": "Material_2",
      "pbrMetallicRoughness": {
        "baseColorTexture": {
          "index": 2
        },
        "metallicRoughnessTexture": {
          "index": 3,
          "texCoord": 1
        }
      }
    },
    {
      "name": "Material_3",
      "pbrMetallicRoughness": {
        "baseColorTexture": {
          "index": 4
        },
        "metallicRoughnessTexture": {
          "index": 5,
          "texCoord": 1
        }
      }
    },
    {
      "name": "Material_4",
      "pbrMetallicRoughness": {
        "baseColorTexture": {
          "index": 6
        },
        "metallicRoughnessTexture": {
          "index": 7
        }
      }
    }
  ],
  "meshes": [
    {
      "name": "Object_0",
      "primitives": [
        {
          "attributes": {
            "NORMAL": 1,
            "POSITION": 0,
            "TEXCOORD_0": 2,
            "TEXCOORD_1": 3,
            "TEXCOORD_2": 4
          },
          "indices": 5,
          "material": 0,
          "mode": 4
        }
      ]
    },
    {
      "name": "Object_1",
      "primitives": [
        {
          "attributes": {
            "NORMAL": 7,
            "POSITION": 6,
            "TEXCOORD_0": 8
          },
          "indices": 9,
          "material": 1,
          "mode": 4
        }
      ]
    },
    {
      "name": "Object_2",
      "primitives": [
        {
          "attributes": {
            "NORMAL": 11,
            "POSITION": 10,
            "TEXCOORD_0": 12,
            "TEXCOORD_1": 13,
            "TEXCOORD_2": 14
          },
          "indices": 15,
          "material": 2,
          "mode": 4
        }
      ]
    },
    {
      "name": "Object_3",
      "primitives": [
        {
          "attributes": {
            "NORMAL": 17,
            "POSITION": 16,
            "TEXCOORD_0": 18,
            "TEXCOORD_1": 19,
            "TEXCOORD_2": 20
          },
          "indices": 21,
          "material": 3,
          "mode": 4
        }
      ]
    },
    {
      "name": "Object_4",
      "primitives": [
        {
          "attributes": {
            "NORMAL": 23,
            "POSITION": 22,
            "TEXCOORD_0": 24,
            "TEXCOORD_1": 25,
            "TEXCOORD_2": 26
          },
          "indices": 27,
          "material": 4,
          "mode": 4
        }
      ]
    }
  ],
  "nodes": [
    {
      "children": [
        1
      ],
      "matrix": [
        1.0,
        0.0,
        0.0,
        0.0,
        0.0,
        2.220446049250313e-16,
        -1.0,
        0.0,
        0.0,
        1.0,
        2.220446049250313e-16,
        0.0,
        0.0,
        0.0,
        0.0,
        1.0
      ],
      "name": "Sketchfab_model"
    },
    {
      "children": [
        2
      ],
      "name": "root"
    },
    {
      "children": [
        3
      ],
      "matrix": [
        1.0,
        0.0,
        0.0,
        0.0,
        0.0,
        2.220446049250313e-16,
        1.0,
        0.0,
        0.0,
        -1.0,
        2.220446049250313e-16,
        0.0,
        0.0,
        0.0,
        0.0,
        1.0
      ],
      "name": "GLTF_SceneRootNode"
    },
    {
      "children": [
        4
      ],
      "name": "world_1"
    },
    {
      "children": [
        5,
        6,
        7,
        8,
        9
      ],
      "name": "part_0_body_0"
    },
    {
      "mesh": 0,
      "name": "Object_5"
    },
    {
      "mesh": 1,
      "name": "Object_6"
    },
    {
      "mesh": 2,
      "name": "Object_7"
    },
    {
      "mesh": 3,
      "name": "Object_8"
    },
    {
      "mesh": 4,
      "name": "Object_9"
    }
  ],
  "samplers": [
    {
      "magFilter": 9729,
      "minFilter": 9987,
      "wrapS": 10497,
      "wrapT": 10497
    }
  ],
  "scene": 0,
  "scenes": [
    {
      "name": "Sketchfab_Scene",
      "nodes": [
        0
      ]
    }
  ],
  "textures": [
    {
      "sampler": 0,
      "source": 0
    },
    {
      "sampler": 0,
      "source": 1
    },
    {
      "sampler": 0,
      "source": 2
    },
    {
      "sampler": 0,
      "source": 3
    },
    {
      "sampler": 0,
      "source": 4
    },
    {
      "sampler": 0,
      "source": 5
    },
    {
      "sampler": 0,
      "source": 6
    },
    {
      "sampler": 0,
      "source": 7
    }
  ]
}
